<svg xmlns="http://www.w3.org/2000/svg" xmlns:xlink="http://www.w3.org/1999/xlink" width="1080" zoomAndPan="magnify" viewBox="0 0 810 1439.999935" height="1920" preserveAspectRatio="xMidYMid meet" version="1.0"><path fill="#968874" d="M 369.949219 1215.785156 L 341.804688 1249.820312 C 339.671875 1234.945312 323.796875 1191.15625 303.8125 1139.964844 C 300.945312 1132.589844 297.964844 1125.089844 294.964844 1117.480469 C 257.691406 1023.332031 211.875 915.546875 211.875 915.546875 L 168.726562 812.125 L 159.398438 789.746094 L 148.050781 762.554688 L 105.527344 673.417969 L 122.191406 674.597656 L 123.925781 658.476562 L 133.117188 668.269531 L 136.578125 652.734375 L 186.570312 757.960938 C 186.570312 757.960938 188.199219 761.867188 191.097656 768.855469 C 192.582031 772.515625 194.453125 776.984375 196.628906 782.171875 C 227.605469 857.019531 319.957031 1080.058594 322.824219 1088.667969 C 323.242188 1089.882812 324.175781 1092.539062 325.5625 1096.308594 C 327.007812 1100.324219 328.984375 1105.617188 331.230469 1111.738281 C 344.890625 1148.710938 369.949219 1215.785156 369.949219 1215.785156 " fill-opacity="1" fill-rule="nonzero"/><path fill="#827460" d="M 196.628906 782.171875 C 196.21875 782.824219 195.835938 783.480469 195.488281 784.140625 C 193.242188 788.324219 191.480469 792.824219 188.4375 796.453125 C 186.117188 799.226562 183.117188 801.371094 180.136719 803.441406 C 177.375 805.378906 172.984375 809.605469 168.726562 812.125 L 159.398438 789.746094 C 163.371094 785.769531 168.171875 782.65625 172.949219 779.640625 C 178.890625 775.90625 184.945312 772.316406 191.097656 768.855469 C 192.582031 772.515625 194.453125 776.984375 196.628906 782.171875 " fill-opacity="1" fill-rule="nonzero"/><path fill="#827460" d="M 331.230469 1111.738281 C 328.742188 1112.5 326.214844 1113.359375 323.828125 1114.960938 C 316.914062 1119.660156 311.457031 1126.230469 307.273438 1133.394531 C 306.027344 1135.539062 304.886719 1137.714844 303.8125 1139.964844 C 300.945312 1132.589844 297.964844 1125.089844 294.964844 1117.480469 C 304.199219 1108.832031 314.113281 1100.984375 325.5625 1096.308594 C 327.007812 1100.324219 328.984375 1105.617188 331.230469 1111.738281 " fill-opacity="1" fill-rule="nonzero"/><path fill="#968874" d="M 126.789062 644.675781 L 110.714844 644.675781 L 110.714844 659.0625 L 98.617188 652.734375 L 98.617188 668.269531 L 42.707031 587.121094 L 39.96875 583.144531 L 45.15625 568.195312 C 45.15625 568.195312 47.613281 570.894531 51.378906 575.050781 C 61.304688 585.980469 80.460938 606.9375 87.132812 613.613281 C 96.328125 622.820312 126.789062 644.675781 126.789062 644.675781 " fill-opacity="1" fill-rule="nonzero"/><path fill="#827460" d="M 51.378906 575.050781 C 50.382812 578.4375 48.585938 581.585938 46.234375 584.183594 C 45.230469 585.289062 43.984375 586.328125 42.707031 587.121094 L 39.96875 583.144531 L 45.15625 568.195312 C 45.15625 568.195312 47.613281 570.894531 51.378906 575.050781 " fill-opacity="1" fill-rule="nonzero"/><path fill="#ada391" d="M 49.089844 559.121094 C 53.722656 562.117188 53.394531 570.847656 48.367188 578.625 C 43.34375 586.398438 35.515625 590.269531 30.890625 587.273438 C 26.257812 584.277344 26.585938 575.546875 31.613281 567.773438 C 36.636719 560.003906 44.464844 556.125 49.089844 559.121094 " fill-opacity="1" fill-rule="nonzero"/><path fill="#968874" d="M 6.070312 824.691406 C 6.070312 824.691406 62.410156 776.953125 115.871094 760.273438 C 169.335938 743.597656 294.089844 625.125 325.128906 615.347656 L 327.425781 628.570312 L 340.070312 629.71875 L 277.410156 679.753906 L 53.210938 816.640625 C 53.210938 816.640625 17 849.992188 6.070312 862.644531 L 2.625 854.59375 L -2.554688 853.445312 L 12.96875 831.589844 L 6.070312 824.691406 " fill-opacity="1" fill-rule="nonzero"/><path fill="#cbcbcb" d="M 27.917969 924.761719 C 27.917969 924.761719 59.539062 891.980469 47.460938 844.820312 C 35.394531 797.660156 35.394531 797.082031 39.992188 793.058594 C 44.585938 789.03125 73.21875 764.300781 119.902344 748.195312 C 166.574219 732.097656 275.308594 632.980469 298.488281 628.765625 C 298.488281 628.765625 328.574219 686.664062 306.15625 715.992188 C 303.554688 719.398438 292.023438 731.390625 288.910156 728.449219 C 288.910156 728.449219 295.035156 710.640625 288.148438 712.351562 C 288.148438 712.351562 267.3125 735.382812 260.164062 735.164062 C 265.914062 718.289062 260.953125 699.917969 257.484375 699.058594 C 254.222656 698.253906 251.789062 702.03125 250.867188 705.25 C 248.730469 712.699219 248.546875 720.578125 246.722656 728.105469 C 243.464844 741.582031 235.179688 753.214844 227.078125 764.46875 C 224.910156 767.480469 222.5625 770.636719 219.136719 772.074219 C 213.898438 774.261719 207.605469 771.828125 202.355469 773.980469 C 197.328125 776.042969 194.847656 781.539062 191.914062 786.109375 C 182.386719 800.960938 165.144531 808.496094 149.554688 816.761719 C 133.960938 825.019531 117.828125 836.617188 114.441406 853.945312 C 113.503906 849.15625 112.480469 844.210938 109.632812 840.257812 C 97.644531 823.597656 85.34375 848.53125 82.53125 858.667969 C 78.078125 874.78125 53.210938 914.40625 27.917969 924.761719 " fill-opacity="1" fill-rule="nonzero"/><path fill="#968874" d="M 116.449219 960.988281 L 83.390625 996.644531 C 83.390625 996.644531 91.726562 994.925781 92.875 998.949219 C 94.03125 1002.976562 78.511719 1017.355469 83.390625 1020.230469 C 88.28125 1023.105469 135.992188 975.367188 148.066406 969.046875 C 160.136719 962.714844 402.734375 819.507812 398.710938 816.640625 C 394.6875 813.757812 379.746094 819.507812 379.746094 816.640625 C 379.746094 813.757812 386.0625 802.832031 382.042969 802.261719 C 378.019531 801.683594 324.550781 832.167969 324.550781 832.167969 L 116.449219 960.988281 " fill-opacity="1" fill-rule="nonzero"/><path fill="#cbcbcb" d="M 381.253906 952.578125 C 379.746094 963.335938 374.210938 974.226562 368.625 982.902344 C 367.71875 978.949219 366.390625 975.101562 364.664062 971.429688 C 360.5625 979.039062 356.5 987.648438 351.113281 994.4375 C 349.796875 996.089844 335.769531 1006.027344 335.898438 1004.300781 C 337.070312 988.894531 339.117188 974.597656 327.699219 962.730469 C 327.160156 962.175781 326.558594 961.613281 325.796875 961.46875 C 324.429688 961.214844 323.234375 962.363281 322.320312 963.398438 C 317.902344 968.417969 313.488281 973.4375 309.078125 978.453125 C 311.679688 970.957031 314.296875 963.390625 315.269531 955.511719 C 316.074219 949.035156 315.894531 941.621094 313.125 935.582031 C 312.484375 934.199219 306.550781 927.355469 307.273438 926.398438 C 316.191406 914.710938 318.441406 894.894531 318.441406 894.894531 C 318.441406 894.894531 337.527344 905.796875 359.542969 901.882812 C 362.417969 901.371094 365.148438 925.886719 365.148438 925.886719 C 365.148438 925.886719 371.789062 920.695312 375.105469 917.765625 C 373.875 918.847656 381.207031 940.808594 381.488281 943.574219 C 381.792969 946.53125 381.679688 949.550781 381.253906 952.578125 Z M 402.179688 921.324219 C 368.808594 850 348.207031 836.0625 353.632812 816 C 353.632812 816 320.824219 819.628906 291.230469 845.398438 C 261.59375 871.132812 150.75 927.621094 118.183594 953.316406 C 104.523438 964.074219 104.390625 970.957031 104.390625 970.957031 C 104.390625 970.957031 154.378906 1009.875 159.566406 1046.671875 C 164.753906 1083.480469 168.757812 1101.882812 168.757812 1101.882812 C 168.757812 1101.882812 184.289062 1063.347656 193.480469 1069.125 C 202.683594 1074.867188 199.808594 1086.941406 214.75 1088.082031 C 229.6875 1089.253906 235.457031 1093.261719 233.734375 1101.882812 C 232 1110.523438 183.148438 1174.34375 204.410156 1203.679688 C 204.410156 1203.679688 206.136719 1186.449219 221.078125 1182.996094 C 236.011719 1179.535156 253.855469 1185.863281 257.304688 1178.949219 C 260.734375 1172.0625 254.40625 1165.316406 262.460938 1161.507812 C 270.515625 1157.667969 277.988281 1167.636719 286.042969 1161.507812 C 294.097656 1155.386719 314.667969 1105.410156 330.261719 1109.113281 C 345.820312 1112.816406 352.734375 1119.136719 354.429688 1117.996094 C 356.15625 1116.855469 358.476562 1066.25 378.597656 1060.472656 C 398.71875 1054.738281 402.179688 1055.324219 402.179688 1055.324219 C 402.179688 1055.324219 435.507812 992.613281 402.179688 921.324219 " fill-opacity="1" fill-rule="nonzero"/><path fill="#a9c46e" d="M 765.863281 1202.949219 C 764.484375 1207.375 765.769531 1212.15625 765.96875 1216.789062 C 766.042969 1218.96875 765.90625 1221.175781 765.140625 1223.183594 C 763.269531 1228.058594 758.261719 1231.039062 753.28125 1232.558594 C 748.304688 1234.085938 743.054688 1234.566406 738.210938 1236.535156 C 727.210938 1241 720.433594 1252.277344 717.015625 1263.652344 C 712.101562 1279.847656 712.101562 1300.21875 702.082031 1314.363281 C 699.589844 1317.859375 696.507812 1320.964844 692.566406 1323.5625 C 685.097656 1328.476562 673.6875 1328.644531 668.332031 1321.488281 C 666.816406 1319.449219 665.917969 1317.03125 665.363281 1314.570312 C 662.214844 1300.355469 670.789062 1286.617188 675.351562 1272.816406 C 679.636719 1259.886719 677.632812 1246.566406 684.269531 1234.535156 C 691.046875 1222.324219 701.003906 1212.597656 709.128906 1201.429688 C 710.027344 1200.25 710.855469 1199.078125 711.652344 1197.863281 C 718.121094 1188.21875 722.609375 1177.253906 724.722656 1165.839844 C 725.726562 1160.441406 726.207031 1154.90625 725.695312 1149.445312 C 724.796875 1139.578125 720.75 1130.277344 718.773438 1120.558594 C 716.667969 1110.355469 716.984375 1099.457031 720.917969 1089.777344 C 724.859375 1080.121094 732.679688 1071.824219 742.5625 1068.539062 C 744.015625 1068.046875 745.503906 1067.671875 747.027344 1067.742188 C 752.246094 1068.015625 755.699219 1073.445312 756.808594 1078.53125 C 759.503906 1091.054688 753.804688 1104.058594 755.394531 1116.75 C 757.046875 1129.828125 766.074219 1140.582031 772.785156 1151.964844 C 779.492188 1163.308594 783.851562 1178.394531 776.277344 1189.222656 C 772.953125 1193.960938 767.597656 1197.414062 765.863281 1202.949219 " fill-opacity="1" fill-rule="nonzero"/><path fill="#9db860" d="M 701.246094 1314.332031 C 701.527344 1314.363281 701.800781 1314.363281 702.082031 1314.363281 C 699.589844 1317.859375 696.507812 1320.964844 692.566406 1323.5625 C 685.097656 1328.476562 673.6875 1328.644531 668.332031 1321.488281 C 666.816406 1319.449219 665.917969 1317.03125 665.363281 1314.570312 C 662.214844 1300.355469 670.789062 1286.617188 675.351562 1272.816406 C 679.636719 1259.886719 677.632812 1246.566406 684.269531 1234.535156 C 691.046875 1222.324219 701.003906 1212.597656 709.128906 1201.429688 C 706.535156 1210.074219 701.390625 1219.207031 699.65625 1225.160156 C 692.636719 1249.265625 699.832031 1275.757812 692.984375 1299.90625 C 692.324219 1302.1875 691.53125 1304.570312 691.914062 1306.925781 C 692.605469 1311.140625 696.957031 1313.945312 701.246094 1314.332031 " fill-opacity="1" fill-rule="nonzero"/><path fill="#85a33e" d="M 679.535156 1298.507812 C 679.4375 1298.507812 679.339844 1298.5 679.253906 1298.484375 C 678.304688 1298.320312 677.671875 1297.4375 677.824219 1296.492188 C 681.8125 1272.128906 687.917969 1247.347656 705.445312 1231.128906 C 709.226562 1227.632812 713.464844 1224.613281 717.578125 1221.699219 C 723.445312 1217.527344 728.984375 1213.59375 733.386719 1208.324219 C 741.625 1198.453125 743.960938 1185.800781 744.476562 1176.933594 C 745.140625 1165.429688 743.335938 1153.78125 741.578125 1142.519531 C 741.433594 1141.570312 742.074219 1140.6875 743.023438 1140.542969 C 743.960938 1140.40625 744.851562 1141.042969 744.996094 1141.980469 C 746.777344 1153.429688 748.617188 1165.269531 747.925781 1177.132812 C 747.382812 1186.523438 744.882812 1199.9375 736.035156 1210.539062 C 731.355469 1216.15625 725.363281 1220.40625 719.574219 1224.515625 C 715.5625 1227.367188 711.402344 1230.324219 707.789062 1233.667969 C 691.039062 1249.179688 685.128906 1273.300781 681.234375 1297.054688 C 681.101562 1297.902344 680.359375 1298.507812 679.535156 1298.507812 " fill-opacity="1" fill-rule="nonzero"/><path fill="#85a33e" d="M 219.609375 1296.628906 C 221.953125 1294.386719 224.675781 1292.539062 226.769531 1290.074219 C 230.167969 1286.082031 231.621094 1280.820312 232.875 1275.726562 C 233.691406 1272.382812 234.480469 1268.996094 234.582031 1265.554688 C 234.785156 1258.761719 232.359375 1252.191406 231.402344 1245.464844 C 230.714844 1240.625 230.976562 1235.160156 234.320312 1231.59375 C 237.769531 1227.914062 243.832031 1227.441406 248.273438 1229.84375 C 252.707031 1232.246094 255.523438 1237.023438 256.40625 1241.988281 C 257.289062 1246.960938 256.4375 1252.09375 254.929688 1256.90625 C 252.273438 1265.347656 247.519531 1273.863281 249.421875 1282.503906 C 251.285156 1290.980469 259.191406 1297.238281 260.621094 1305.792969 C 262.042969 1314.347656 256.558594 1322.523438 250.328125 1328.542969 C 244.089844 1334.558594 236.6875 1339.667969 232.367188 1347.175781 C 230.214844 1350.921875 228.289062 1355.675781 224.058594 1356.519531 C 219.785156 1357.371094 215.996094 1353.464844 214.253906 1349.472656 C 209.964844 1339.585938 213.097656 1329.351562 212.320312 1319.09375 C 211.636719 1310.113281 212.527344 1303.398438 219.609375 1296.628906 " fill-opacity="1" fill-rule="nonzero"/><path fill="#a9c46e" d="M 227.050781 1331.214844 C 229.871094 1329.488281 233.074219 1328.332031 235.515625 1326.113281 C 240.179688 1321.859375 240.917969 1314.933594 242.285156 1308.765625 C 244.667969 1298.058594 249.878906 1287.984375 257.25 1279.863281 C 261.007812 1275.710938 265.390625 1271.964844 267.921875 1266.96875 C 270.371094 1262.132812 270.859375 1256.550781 272.660156 1251.433594 C 274.457031 1246.316406 278.34375 1241.21875 283.746094 1240.800781 C 289.574219 1240.359375 294.585938 1245.972656 295.132812 1251.796875 C 295.679688 1257.621094 292.796875 1263.257812 289.101562 1267.796875 C 285.402344 1272.328125 280.847656 1276.105469 277.140625 1280.617188 C 273.429688 1285.140625 270.515625 1290.753906 271.003906 1296.585938 C 271.671875 1304.515625 278.359375 1310.804688 279.683594 1318.644531 C 280.871094 1325.664062 277.574219 1332.667969 273.542969 1338.550781 C 269.519531 1344.421875 264.628906 1349.828125 261.964844 1356.429688 C 258.613281 1364.695312 258.839844 1374.601562 253.179688 1381.5 C 247.117188 1388.882812 234.785156 1389.917969 227.582031 1383.644531 C 223.488281 1380.085938 221.382812 1374.96875 220.164062 1369.804688 C 219.0625 1365.097656 217.070312 1360.558594 216.261719 1355.890625 C 214.648438 1346.574219 218.910156 1336.203125 227.050781 1331.214844 " fill-opacity="1" fill-rule="nonzero"/><path fill="#804c26" d="M -3.894531 1210.78125 L 52.449219 1180.5 L 62.410156 1191.039062 L 73.140625 1168.609375 L 124.878906 1146.375 L 159.757812 1274.433594 L 34.816406 1327.96875 L 17.953125 1335.394531 L -15.769531 1245.289062 L -3.894531 1210.78125 " fill-opacity="1" fill-rule="nonzero"/><path fill="#613a1d" d="M 65.832031 1183.855469 L 64.179688 1191.085938 L 67.222656 1210.523438 C 67.316406 1211.109375 67.117188 1211.707031 66.667969 1212.082031 L 48.304688 1227.996094 L 49.550781 1240.71875 C 49.652344 1241.660156 48.960938 1242.519531 48.03125 1242.589844 C 47.960938 1242.625 47.886719 1242.625 47.855469 1242.625 C 46.957031 1242.625 46.234375 1241.933594 46.128906 1241.066406 L 44.78125 1227.441406 C 44.707031 1226.886719 44.914062 1226.332031 45.367188 1225.957031 L 63.65625 1210.105469 L 60.71875 1191.292969 C 60.683594 1191.085938 60.683594 1190.875 60.71875 1190.636719 L 60.957031 1189.527344 L 65.832031 1183.855469 " fill-opacity="1" fill-rule="nonzero"/><path fill="#9e6236" d="M 26.28125 1326.089844 L 25.660156 1341.167969 L 24.070312 1381.019531 C 3.984375 1369.1875 -18.460938 1320.453125 -18.460938 1320.453125 L -13.09375 1303.191406 L -21.15625 1298.210938 C -27.171875 1237.507812 -7.289062 1214.300781 -4.28125 1211.183594 C -4.109375 1211.015625 -4.007812 1210.902344 -3.972656 1210.835938 L -3.902344 1210.804688 C -18.460938 1252.96875 26.28125 1326.089844 26.28125 1326.089844 " fill-opacity="1" fill-rule="nonzero"/><path fill="#9e6236" d="M 25.660156 1341.167969 L 24.070312 1381.019531 C 3.984375 1369.1875 -18.460938 1320.453125 -18.460938 1320.453125 L -13.09375 1303.191406 L -21.15625 1298.210938 C -27.171875 1237.507812 -7.289062 1214.300781 -4.28125 1211.183594 C -8.15625 1217.230469 -24.714844 1296.890625 21.75 1338.542969 L 25.660156 1341.167969 " fill-opacity="1" fill-rule="nonzero"/><path fill="#fcbf56" d="M 49.910156 1301.558594 C 47.492188 1293.734375 50.769531 1284.515625 57.570312 1279.96875 C 64.378906 1275.429688 74.152344 1275.941406 80.4375 1281.179688 C 80.347656 1273.261719 85.253906 1265.445312 92.511719 1262.296875 C 99.773438 1259.136719 108.964844 1260.984375 114.289062 1266.851562 C 115.796875 1260.414062 120.992188 1254.992188 127.351562 1253.21875 C 133.710938 1251.433594 140.96875 1253.378906 145.585938 1258.09375 C 148.710938 1252.960938 154.894531 1249.875 160.859375 1250.464844 C 166.832031 1251.050781 172.292969 1255.273438 174.363281 1260.90625 C 178.050781 1256.847656 183.863281 1254.839844 189.265625 1255.765625 C 194.671875 1256.679688 199.488281 1260.503906 201.617188 1265.554688 C 201.359375 1264.9375 205.664062 1263.886719 206.144531 1264 C 213.988281 1265.804688 213.441406 1270.882812 211.933594 1275.773438 C 211.074219 1278.570312 207.550781 1285.132812 206.121094 1287.5 C 202.183594 1294.054688 179.566406 1333.9375 172.515625 1347.5 C 170.117188 1352.109375 159.277344 1375.453125 158.523438 1375.363281 C 118.890625 1370.703125 78.679688 1366.0625 39.222656 1372.023438 C 38.25 1372.175781 37.167969 1372.296875 36.398438 1371.683594 C 35.804688 1371.21875 35.570312 1370.429688 35.378906 1369.699219 C 33.152344 1361.296875 31.417969 1352.769531 30.148438 1344.171875 C 29.226562 1337.921875 32.300781 1332.082031 29.121094 1326.710938 C 21.75 1314.265625 35.207031 1297.640625 49.910156 1301.558594 " fill-opacity="1" fill-rule="nonzero"/><path fill="#c99538" d="M 86.613281 1303.046875 C 86.523438 1303.046875 86.433594 1303.039062 86.339844 1303.019531 C 85.398438 1302.867188 84.757812 1301.984375 84.902344 1301.046875 C 85.875 1294.949219 89.945312 1289.519531 95.523438 1286.875 C 100.503906 1284.515625 106.453125 1284.496094 111.460938 1286.746094 C 113.597656 1282.578125 117.949219 1279.582031 122.648438 1279.21875 C 127.980469 1278.792969 133.445312 1281.878906 135.878906 1286.667969 C 136.320312 1287.519531 135.976562 1288.5625 135.125 1288.996094 C 134.296875 1289.421875 133.238281 1289.09375 132.804688 1288.234375 C 130.980469 1284.648438 126.847656 1282.386719 122.90625 1282.675781 C 118.898438 1282.980469 115.226562 1285.855469 113.96875 1289.671875 C 113.808594 1290.167969 113.429688 1290.5625 112.949219 1290.746094 C 112.449219 1290.933594 111.902344 1290.882812 111.460938 1290.625 C 107.101562 1288.082031 101.570312 1287.847656 97 1290.007812 C 92.511719 1292.128906 89.101562 1296.675781 88.324219 1301.582031 C 88.1875 1302.433594 87.445312 1303.046875 86.613281 1303.046875 " fill-opacity="1" fill-rule="nonzero"/><path fill="#9e6236" d="M 104.871094 1407.792969 L 36.277344 1420 L 32.847656 1420.621094 L 17.945312 1423.285156 C 17.945312 1423.285156 17.945312 1421.96875 18.019531 1419.617188 C 18.226562 1408.617188 19.09375 1375.242188 21.75 1350.582031 C 21.886719 1349.402344 21.992188 1348.261719 22.167969 1347.152344 C 23.238281 1338.058594 24.585938 1330.484375 26.28125 1326.089844 L 34.855469 1327.953125 L 85.09375 1338.992188 L 92.007812 1340.476562 C 92.9375 1344.285156 93.839844 1348.050781 94.570312 1351.890625 C 95.710938 1357.910156 96.023438 1363.964844 96.882812 1369.980469 C 98.617188 1382.296875 102.9375 1394.128906 104.179688 1406.507812 C 104.253906 1407.101562 104.523438 1407.511719 104.871094 1407.792969 " fill-opacity="1" fill-rule="nonzero"/><path fill="#ba7440" d="M 227.644531 1324.667969 L 226.988281 1321.144531 L 223.285156 1300.699219 L 222.628906 1297.171875 L 217.449219 1268.671875 L 207.179688 1274.34375 L 171.632812 1293.992188 L 164.335938 1312.007812 C 164.335938 1312.007812 147.882812 1309.695312 146.742188 1309.695312 C 145.910156 1309.695312 119.082031 1325.464844 103.730469 1334.523438 C 100.117188 1336.671875 97.171875 1338.414062 95.316406 1339.515625 C 96.3125 1343.441406 97.242188 1347.378906 97.980469 1351.371094 C 99.121094 1357.507812 99.417969 1363.707031 100.335938 1369.871094 C 102.164062 1382.214844 106.371094 1394.070312 107.640625 1406.523438 C 107.664062 1406.828125 107.617188 1407.085938 107.519531 1407.300781 L 117.210938 1405.574219 L 223.871094 1370.222656 L 235.25 1366.457031 L 227.644531 1324.667969 " fill-opacity="1" fill-rule="nonzero"/><path fill="#945528" d="M 113.792969 1399.140625 L 104.421875 1402.183594 L 87.3125 1399.695312 L 85.09375 1338.992188 L 93.21875 1340.757812 C 93.21875 1340.757812 97.539062 1338.195312 103.730469 1334.523438 L 113.792969 1399.140625 " fill-opacity="1" fill-rule="nonzero"/><path fill="#945528" d="M 235.25 1366.457031 L 223.871094 1370.222656 L 207.179688 1274.34375 L 217.449219 1268.671875 L 235.25 1366.457031 " fill-opacity="1" fill-rule="nonzero"/><path fill="#945528" d="M 223.285156 1300.699219 C 179.238281 1322.421875 105.488281 1358.777344 103.554688 1359.882812 C 103.28125 1360.019531 102.96875 1360.125 102.695312 1360.125 C 102.101562 1360.125 101.515625 1359.8125 101.203125 1359.289062 C 100.71875 1358.503906 100.929688 1357.457031 101.691406 1356.945312 C 102.757812 1356.214844 188.160156 1314.15625 222.628906 1297.171875 L 223.285156 1300.699219 " fill-opacity="1" fill-rule="nonzero"/><path fill="#945528" d="M 227.644531 1324.667969 L 136.402344 1371.058594 C 136.160156 1371.195312 135.878906 1371.257812 135.605469 1371.257812 C 134.980469 1371.257812 134.363281 1370.914062 134.089844 1370.296875 C 133.640625 1369.46875 133.984375 1368.421875 134.8125 1367.972656 L 226.988281 1321.144531 L 227.644531 1324.667969 " fill-opacity="1" fill-rule="nonzero"/><path fill="#945528" d="M 94.914062 1361.613281 C 94.777344 1362.4375 94.046875 1363.035156 93.21875 1363.035156 L 92.90625 1363.035156 L 21.75 1350.582031 C 21.886719 1349.402344 21.992188 1348.261719 22.167969 1347.152344 L 93.492188 1359.601562 C 94.425781 1359.78125 95.082031 1360.679688 94.914062 1361.613281 " fill-opacity="1" fill-rule="nonzero"/><path fill="#945528" d="M 36.308594 1420.859375 L 32.847656 1420.621094 L 18.019531 1419.617188 C 18.226562 1408.617188 19.09375 1375.242188 21.75 1350.582031 C 21.886719 1349.402344 21.992188 1348.261719 22.167969 1347.152344 C 23.238281 1338.058594 24.585938 1330.484375 26.28125 1326.089844 L 34.855469 1327.953125 C 35.136719 1344.148438 36.171875 1411.558594 36.277344 1420 C 36.308594 1420.554688 36.308594 1420.859375 36.308594 1420.859375 " fill-opacity="1" fill-rule="nonzero"/><path fill="#a9c46e" d="M -11.335938 1409.734375 C -12.628906 1405.765625 -12.140625 1401.292969 -14.011719 1397.566406 C -15.746094 1394.105469 -19.199219 1391.910156 -22.183594 1389.453125 C -26.359375 1386.007812 -29.964844 1381.53125 -31.113281 1376.238281 C -32.269531 1370.945312 -30.453125 1364.785156 -25.855469 1361.925781 C -21.253906 1359.066406 -14.066406 1360.855469 -12.277344 1365.972656 C -11.105469 1369.339844 -12.117188 1373.628906 -9.570312 1376.117188 C -8.09375 1377.566406 -5.714844 1377.992188 -4.578125 1379.71875 C -3.8125 1380.882812 -3.757812 1382.449219 -2.816406 1383.46875 C -0.90625 1385.550781 2.914062 1383.308594 3.21875 1380.496094 C 3.53125 1377.691406 1.71875 1375.140625 0 1372.90625 C -3.644531 1368.160156 -7.355469 1363.347656 -9.554688 1357.78125 C -11.746094 1352.222656 -12.269531 1345.699219 -9.539062 1340.375 C -8.230469 1337.828125 -6.222656 1335.617188 -5.332031 1332.894531 C -4.375 1329.953125 -4.816406 1326.75 -4.40625 1323.671875 C -4 1320.605469 -2.175781 1317.253906 0.898438 1316.871094 C 3.484375 1316.554688 5.828125 1318.5 7.25 1320.691406 C 9.738281 1324.523438 10.429688 1329.320312 10.035156 1333.875 C 9.675781 1337.988281 8.511719 1342.1875 9.667969 1346.148438 C 11.746094 1353.242188 20.433594 1356.742188 22.714844 1363.78125 C 23.1875 1365.234375 23.382812 1366.832031 24.320312 1368.039062 C 25.261719 1369.242188 27.363281 1369.714844 28.230469 1368.464844 C 28.632812 1367.894531 28.65625 1367.144531 28.65625 1366.449219 C 28.6875 1363.25 28.714844 1360.054688 28.738281 1356.863281 C 28.761719 1354.042969 28.792969 1351.152344 29.789062 1348.519531 C 30.777344 1345.875 32.945312 1343.496094 35.730469 1343.0625 C 37.84375 1342.734375 39.992188 1343.570312 41.746094 1344.800781 C 44.820312 1346.953125 47.011719 1350.703125 46.371094 1354.398438 C 45.78125 1357.820312 43.011719 1360.429688 41.65625 1363.621094 C 37.769531 1372.777344 46.242188 1383.125 44.195312 1392.859375 C 42.402344 1401.367188 33.539062 1406.097656 25.628906 1409.6875 C 15.121094 1414.457031 -5.371094 1427.984375 -11.335938 1409.734375 " fill-opacity="1" fill-rule="nonzero"/><path fill="#b5713f" d="M 735.964844 947.195312 C 735.683594 948.683594 735.441406 950.167969 735.167969 951.664062 C 728.632812 988.636719 712.484375 1033.5 675.769531 1076.144531 L 675.734375 1076.175781 C 673.519531 1078.773438 671.238281 1081.335938 668.816406 1083.929688 C 667.914062 1084.933594 666.984375 1085.9375 666.011719 1086.941406 C 666.011719 1086.941406 675.039062 1114.542969 682.609375 1153.484375 C 682.859375 1154.664062 683.097656 1155.835938 683.339844 1157.050781 L 683.339844 1157.082031 C 686.726562 1174.929688 689.769531 1194.996094 691.496094 1215.746094 C 691.601562 1217.03125 691.707031 1218.308594 691.769531 1219.585938 C 695.0625 1263.097656 692.429688 1309.277344 675.214844 1344.597656 L 443.5625 1407.855469 L 291.230469 1388.3125 L 291.230469 1333.113281 C 291.230469 1333.113281 379.738281 1231.867188 399.273438 1190.46875 C 418.839844 1149.058594 437.234375 1062.796875 437.234375 1062.796875 L 736.164062 869.542969 C 736.164062 869.542969 743.148438 901.914062 735.964844 947.195312 " fill-opacity="1" fill-rule="nonzero"/><path fill="#945528" d="M 735.964844 947.195312 C 735.683594 948.683594 735.441406 950.167969 735.167969 951.664062 L 431.984375 1134.808594 C 431.703125 1134.984375 431.398438 1135.050781 431.085938 1135.050781 C 430.488281 1135.050781 429.945312 1134.777344 429.628906 1134.222656 C 429.109375 1133.425781 429.390625 1132.359375 430.21875 1131.867188 L 735.964844 947.195312 " fill-opacity="1" fill-rule="nonzero"/><path fill="#945528" d="M 675.734375 1076.175781 C 673.519531 1078.773438 671.238281 1081.335938 668.816406 1083.929688 L 380.742188 1242.214844 C 380.5 1242.351562 380.1875 1242.414062 379.914062 1242.414062 C 379.328125 1242.414062 378.699219 1242.109375 378.386719 1241.515625 C 377.9375 1240.6875 378.25 1239.652344 379.078125 1239.167969 L 675.734375 1076.175781 " fill-opacity="1" fill-rule="nonzero"/><path fill="#945528" d="M 683.339844 1157.050781 L 683.339844 1157.082031 L 297.757812 1368.914062 C 297.484375 1369.050781 297.210938 1369.113281 296.929688 1369.113281 C 296.3125 1369.113281 295.726562 1368.808594 295.414062 1368.222656 C 294.964844 1367.386719 295.238281 1366.351562 296.105469 1365.867188 L 682.609375 1153.484375 C 682.859375 1154.664062 683.097656 1155.835938 683.339844 1157.050781 " fill-opacity="1" fill-rule="nonzero"/><path fill="#945528" d="M 691.769531 1219.585938 L 401.101562 1390.875 C 400.828125 1391.050781 400.515625 1391.117188 400.203125 1391.117188 C 399.617188 1391.117188 399.0625 1390.800781 398.71875 1390.257812 C 398.234375 1389.421875 398.507812 1388.382812 399.34375 1387.902344 L 691.496094 1215.746094 C 691.601562 1217.03125 691.707031 1218.308594 691.769531 1219.585938 " fill-opacity="1" fill-rule="nonzero"/><path fill="#945528" d="M 450.257812 1080.1875 C 450.257812 1080.1875 411.933594 1224.203125 395.074219 1242.414062 L 369.964844 1255.644531 L 373.996094 1268.679688 C 373.996094 1268.679688 342.273438 1316.957031 318.800781 1339.996094 C 312.484375 1346.203125 298.488281 1374.503906 298.488281 1374.503906 L 311.632812 1305.617188 L 396.605469 1201.96875 L 437.996094 1087.710938 L 450.257812 1080.1875 " fill-opacity="1" fill-rule="nonzero"/><path fill="#945528" d="M 657.355469 962.578125 C 658.28125 964.53125 659.347656 966.523438 659.300781 968.675781 C 659.269531 970.179688 658.691406 971.609375 658.128906 972.996094 C 650.894531 991.160156 646.285156 1010.367188 644.503906 1029.835938 C 646.171875 1029.234375 647.078125 1027.492188 647.828125 1025.882812 C 654.386719 1011.90625 660.9375 997.929688 667.488281 983.953125 C 670.097656 978.394531 673.015625 972.492188 678.363281 969.472656 C 678.699219 969.277344 679.09375 969.054688 679.179688 968.667969 C 679.246094 968.386719 679.132812 968.097656 679.011719 967.839844 C 677.253906 964.015625 673.640625 961.445312 670.765625 958.371094 C 667.890625 955.292969 665.636719 950.785156 667.410156 946.972656 C 668.277344 945.117188 671.800781 941.6875 673.214844 940.207031 C 677.496094 935.726562 679.96875 931.082031 674.578125 926.625 C 664.308594 932.433594 663.539062 929.636719 654.097656 936.691406 C 651.558594 942.015625 653.976562 955.414062 657.355469 962.578125 " fill-opacity="1" fill-rule="nonzero"/><path fill="#804c26" d="M 813.300781 843.671875 L 677.496094 930.144531 L 652.667969 945.953125 L 455.628906 1071.40625 C 455.628906 1071.40625 440.695312 1159.992188 387.796875 1241.066406 L 364.425781 1253.722656 L 369.949219 1268.117188 C 369.949219 1268.117188 342.160156 1308.105469 330.886719 1320.453125 C 319.4375 1332.992188 302.703125 1356.109375 303.296875 1366.457031 L 246.386719 1359.226562 L 267.648438 1327.335938 L 297.726562 1307.414062 L 285.457031 1289.011719 C 285.457031 1289.011719 362.105469 1220.765625 369.78125 1186.242188 C 369.78125 1186.242188 378.21875 1159.40625 408.089844 1138.71875 L 399.648438 1121.082031 C 399.648438 1121.082031 412.238281 1099.59375 412.792969 1081.785156 C 413.378906 1063.9375 415.386719 1048.996094 438.960938 1036.335938 C 452.828125 1028.863281 571.554688 954.007812 666.847656 893.722656 C 670.894531 891.160156 674.902344 888.636719 678.875 886.148438 C 739.90625 847.511719 788.484375 816.625 788.484375 816.625 L 786.164062 832.152344 L 804.558594 825.820312 L 792.488281 841.347656 L 813.300781 843.671875 " fill-opacity="1" fill-rule="nonzero"/><path fill="#784623" d="M 677.253906 917.484375 C 676.59375 921.667969 676.667969 925.988281 677.496094 930.144531 L 652.667969 945.953125 C 651.839844 943.011719 651.320312 940.039062 651.671875 937.027344 C 652.605469 928.625 659.789062 922.566406 664.527344 915.578125 C 666.460938 912.742188 668.019531 909.5625 668.4375 906.171875 C 668.78125 903.335938 668.261719 900.503906 667.777344 897.699219 C 667.570312 896.589844 667.191406 895.175781 666.847656 893.722656 C 670.894531 891.160156 674.902344 888.636719 678.875 886.148438 C 680.160156 890.816406 681.125 895.554688 680.8125 900.367188 C 680.402344 906.171875 678.152344 911.707031 677.253906 917.484375 " fill-opacity="1" fill-rule="nonzero"/><path fill="#945528" d="M 532.339844 1191.039062 L 525.1875 1246.824219 C 525.1875 1246.824219 562.546875 1275.011719 563.703125 1284.207031 C 564.851562 1293.414062 555.648438 1333.09375 570.601562 1346.324219 C 570.601562 1346.324219 567.148438 1326.277344 573.476562 1316.171875 C 579.792969 1306.066406 590.722656 1278.457031 578.644531 1268.679688 C 566.578125 1258.90625 538.980469 1238.777344 538.980469 1238.777344 L 538.402344 1197.9375 L 532.339844 1191.039062 " fill-opacity="1" fill-rule="nonzero"/><path fill="#85a33e" d="M 685.621094 1320.523438 C 681.332031 1334.179688 662.730469 1344.976562 650.734375 1334.355469 C 650.386719 1334.042969 650.011719 1333.730469 649.664062 1333.382812 C 636.800781 1321.832031 624.390625 1306.203125 616.816406 1290.769531 C 608.523438 1273.863281 605.929688 1253 614.777344 1236.367188 C 618.4375 1229.449219 623.9375 1223.425781 628.121094 1216.855469 C 630.402344 1213.296875 632.273438 1209.5625 633.277344 1205.441406 C 634.792969 1199.285156 634.867188 1191.535156 640.464844 1188.59375 C 644.164062 1186.628906 649.007812 1187.9375 652.082031 1190.8125 C 655.15625 1193.679688 656.785156 1197.761719 657.886719 1201.808594 C 659.832031 1208.757812 660.488281 1216.058594 659.832031 1223.257812 C 659.097656 1231.207031 656.785156 1238.921875 655.785156 1246.847656 C 654.746094 1254.769531 655.15625 1263.273438 659.414062 1270.023438 C 663.28125 1276.175781 669.785156 1280.085938 675.003906 1285.132812 C 684.34375 1294.160156 689.492188 1308.136719 685.621094 1320.523438 " fill-opacity="1" fill-rule="nonzero"/><path fill="#769134" d="M 672.765625 1333.65625 C 671.816406 1333.65625 671.039062 1332.886719 671.039062 1331.9375 C 670.984375 1320.835938 663.273438 1311.101562 656.570312 1303.871094 C 655.460938 1302.683594 654.339844 1301.496094 653.214844 1300.3125 C 646.507812 1293.246094 639.582031 1285.945312 636.160156 1276.609375 C 631.914062 1265.003906 633.863281 1252.335938 636.015625 1241.363281 C 636.199219 1240.429688 637.097656 1239.820312 638.046875 1240.003906 C 638.984375 1240.1875 639.597656 1241.097656 639.410156 1242.035156 C 637.339844 1252.542969 635.46875 1264.65625 639.410156 1275.421875 C 642.574219 1284.078125 649.253906 1291.125 655.71875 1297.929688 C 656.859375 1299.125 657.984375 1300.3125 659.097656 1301.519531 C 666.238281 1309.214844 674.425781 1319.617188 674.492188 1331.921875 C 674.5 1332.878906 673.730469 1333.65625 672.773438 1333.65625 C 672.773438 1333.65625 672.773438 1333.65625 672.765625 1333.65625 " fill-opacity="1" fill-rule="nonzero"/><path fill="#799435" d="M 667.296875 1327.335938 C 661.421875 1329.34375 655.542969 1331.382812 649.664062 1333.382812 C 636.800781 1321.832031 624.390625 1306.203125 616.816406 1290.769531 C 608.523438 1273.863281 605.929688 1253 614.777344 1236.367188 C 618.4375 1229.449219 623.9375 1223.425781 628.121094 1216.855469 C 627.671875 1222.117188 626.773438 1227.304688 624.660156 1232.179688 C 621.347656 1239.753906 615.8125 1246.566406 614.914062 1254.726562 C 614.433594 1259.46875 615.539062 1264.238281 616.890625 1268.808594 C 620.757812 1281.917969 626.703125 1294.683594 636.113281 1304.613281 C 645.480469 1314.570312 658.617188 1321.457031 672.277344 1321.351562 C 673.519531 1324.050781 670.058594 1326.363281 667.296875 1327.335938 " fill-opacity="1" fill-rule="nonzero"/><path fill="#a9c46e" d="M 545.976562 1323.320312 C 545.933594 1327.160156 544.449219 1330.789062 542.996094 1334.324219 C 537.847656 1346.742188 532.695312 1359.152344 527.578125 1371.570312 C 519.140625 1373.339844 505.621094 1377.628906 491.3125 1382.328125 C 465.273438 1390.875 436.542969 1400.835938 430.53125 1399.558594 C 430.425781 1399.527344 430.320312 1399.527344 430.183594 1399.484375 C 430.113281 1399.527344 430.082031 1399.484375 430.046875 1399.453125 C 420.742188 1396.996094 338.074219 1366.9375 315.191406 1361.339844 C 313.839844 1355.492188 318.367188 1349.472656 323.964844 1347.363281 C 329.601562 1345.21875 335.929688 1346.117188 341.742188 1347.675781 C 351.5625 1350.300781 360.890625 1354.726562 369.164062 1360.640625 C 363.035156 1353.585938 358.714844 1345.183594 354.984375 1336.636719 C 353.394531 1332.976562 351.867188 1329.136719 352.011719 1325.160156 C 352.148438 1321.144531 354.46875 1316.988281 358.296875 1315.847656 C 364.078125 1314.1875 369.195312 1319.761719 372.65625 1324.667969 C 377.28125 1331.28125 381.953125 1337.914062 386.585938 1344.527344 C 381.328125 1331.34375 378.910156 1316.988281 379.601562 1302.8125 C 379.769531 1298.796875 380.257812 1294.683594 382.226562 1291.1875 C 384.234375 1287.695312 388.070312 1285.035156 392.046875 1285.519531 C 397.859375 1286.242188 400.863281 1292.707031 402.589844 1298.3125 C 408.023438 1315.816406 411.820312 1334.042969 420.605469 1350.125 C 414.761719 1333.769531 412.6875 1316.027344 414.625 1298.765625 C 415.765625 1288.523438 418.597656 1277.902344 426 1270.777344 C 427.589844 1269.226562 429.496094 1267.835938 431.703125 1267.566406 C 435.332031 1267.148438 438.6875 1270.023438 440.109375 1273.371094 C 441.523438 1276.761719 441.449219 1280.539062 441.417969 1284.199219 C 441.28125 1307.132812 444.429688 1330.066406 450.714844 1352.101562 C 444.773438 1326.675781 448.402344 1299.179688 460.367188 1276 C 462.542969 1271.78125 465.105469 1267.597656 468.910156 1264.761719 C 472.707031 1261.925781 478.03125 1260.710938 482.253906 1262.824219 C 487.503906 1265.484375 489.335938 1271.992188 489.960938 1277.796875 C 491.101562 1288.457031 489.996094 1299.214844 488.925781 1309.863281 C 487.851562 1320.347656 486.78125 1330.832031 485.707031 1341.304688 C 487.851562 1325.601562 493.351562 1310.347656 501.75 1296.890625 C 505.417969 1291.011719 511.433594 1284.785156 518.105469 1286.585938 C 523.15625 1287.96875 525.988281 1293.679688 525.917969 1298.933594 C 525.855469 1304.160156 523.605469 1309.070312 521.628906 1313.945312 C 517.519531 1324.082031 514.546875 1334.703125 512.75 1345.488281 C 515.585938 1337.191406 519.558594 1329.273438 524.503906 1322.042969 C 528.300781 1316.507812 534.910156 1310.765625 540.925781 1313.746094 C 544.351562 1315.441406 546.039062 1319.519531 545.976562 1323.320312 " fill-opacity="1" fill-rule="nonzero"/><path fill="#b7d477" d="M 514.582031 1310.734375 C 512.8125 1317.09375 510.636719 1322.453125 509.875 1328.957031 C 509.183594 1334.839844 508.527344 1340.757812 507.730469 1346.597656 C 506.246094 1357.667969 504.039062 1370.503906 495.527344 1378.527344 C 494.113281 1379.835938 492.726562 1381.125 491.3125 1382.328125 C 465.273438 1390.875 436.542969 1400.835938 430.53125 1399.558594 C 430.425781 1399.527344 430.320312 1399.527344 430.183594 1399.484375 C 430.113281 1399.527344 430.082031 1399.484375 430.046875 1399.453125 C 419.289062 1395.269531 409.613281 1388.761719 400.003906 1382.503906 C 390.59375 1376.382812 386.03125 1366.003906 377.769531 1358.597656 C 370.09375 1351.683594 362.898438 1344.347656 359.648438 1334.21875 C 359.40625 1333.457031 359.199219 1332.628906 359.480469 1331.898438 C 360.339844 1329.859375 363.421875 1331.039062 365.117188 1332.484375 C 370.261719 1336.878906 375.585938 1341.0625 381.054688 1345.039062 C 384.304688 1347.394531 395.226562 1357.949219 395.121094 1349.472656 C 395.058594 1344.421875 392.496094 1338.613281 391.804688 1333.53125 C 391.042969 1328.058594 390.664062 1322.566406 390.632812 1317.0625 C 390.632812 1316.164062 390.695312 1315.191406 391.28125 1314.539062 C 392.117188 1313.601562 393.667969 1313.746094 394.640625 1314.5 C 395.609375 1315.261719 396.15625 1316.402344 396.679688 1317.542969 C 400.558594 1325.851562 405.085938 1333.835938 410.199219 1341.410156 C 412.167969 1344.316406 423.304688 1362.09375 426.859375 1356.566406 C 429.597656 1352.269531 425.238281 1340.238281 424.652344 1335.425781 C 423.648438 1326.75 422.855469 1317.992188 422.40625 1309.277344 C 422.195312 1305.472656 421.433594 1301.222656 422.195312 1297.34375 C 422.539062 1295.511719 421.128906 1284.410156 427.277344 1285.171875 C 434.503906 1286.070312 432.257812 1321.144531 441.386719 1347.183594 C 442.558594 1350.4375 444.460938 1358.085938 447.785156 1359.78125 C 453.800781 1362.890625 455.941406 1352.96875 456.351562 1348.984375 C 457.605469 1337.402344 458.015625 1325.191406 459.707031 1313.429688 C 460.230469 1309.761719 466.171875 1278.632812 472.570312 1283.195312 C 473.199219 1283.644531 473.503906 1284.410156 473.742188 1285.132812 C 475.886719 1291.808594 474.957031 1299.035156 474.335938 1306.023438 C 473.261719 1317.785156 471.914062 1331.238281 473.367188 1343 C 474.609375 1353.074219 485.601562 1350.300781 489.304688 1343.039062 C 493.90625 1334.042969 494.492188 1323.769531 499.5 1315.085938 C 502.238281 1310.417969 503.964844 1300.910156 510.773438 1300.699219 C 512.855469 1300.636719 514.613281 1302.5 515.09375 1304.539062 C 515.617188 1306.578125 515.132812 1308.722656 514.582031 1310.734375 " fill-opacity="1" fill-rule="nonzero"/><path fill="#945528" d="M 566.097656 1043.597656 C 567.96875 1049.492188 570.761719 1055.339844 570.359375 1061.511719 C 569.675781 1072.015625 560.050781 1079.9375 557.875 1090.234375 C 556.71875 1095.738281 557.785156 1101.433594 557.988281 1107.054688 C 558.195312 1112.679688 557.273438 1118.855469 553.128906 1122.664062 C 550.117188 1114.816406 547.097656 1106.628906 547.78125 1098.257812 C 548.214844 1092.988281 550.101562 1087.960938 551.273438 1082.804688 C 553.898438 1071.222656 552.886719 1059.164062 551.578125 1047.363281 C 550.269531 1035.5625 548.679688 1023.644531 550.175781 1011.867188 C 551.675781 1000.089844 556.695312 988.226562 566.242188 981.175781 C 567.78125 980.035156 570.175781 979.117188 571.394531 980.589844 C 571.886719 981.167969 572.007812 981.960938 572.078125 982.707031 C 573.128906 993.3125 567.109375 1001.03125 564.84375 1011.039062 C 562.410156 1021.746094 562.765625 1033.113281 566.097656 1043.597656 " fill-opacity="1" fill-rule="nonzero"/><path fill="#945528" d="M 522.0625 1051.574219 C 524.988281 1041.058594 533.113281 1032.9375 538.957031 1023.714844 C 539.359375 1023.089844 539.761719 1022.429688 539.878906 1021.699219 C 540.1875 1019.917969 538.699219 1018.1875 536.949219 1017.714844 C 535.207031 1017.234375 533.335938 1017.753906 531.714844 1018.550781 C 525.316406 1021.683594 521.839844 1028.65625 519.359375 1035.332031 C 515.480469 1045.765625 512.910156 1056.691406 511.722656 1067.757812 C 511.039062 1074.136719 515.792969 1077.238281 518.425781 1070.28125 C 520.675781 1064.328125 520.371094 1057.679688 522.0625 1051.574219 " fill-opacity="1" fill-rule="nonzero"/><path fill="#85a33e" d="M 559.351562 967.671875 C 559.214844 971.40625 558.796875 975.078125 558.179688 978.675781 C 556.140625 989.914062 551.882812 1000.566406 546.769531 1010.945312 C 545.734375 1013.054688 544.65625 1015.128906 543.519531 1017.167969 C 542.480469 1018.9375 541.375 1020.632812 540.128906 1022.253906 C 537.328125 1025.882812 533.875 1028.929688 530.65625 1032.148438 C 529.585938 1033.21875 528.542969 1034.296875 527.546875 1035.4375 C 521.566406 1042.246094 520.039062 1051.171875 518.660156 1060.097656 C 518.03125 1064.207031 519.246094 1070.265625 515.199219 1078.875 C 512.164062 1076.28125 507.355469 1070.851562 505.523438 1061.789062 C 504.132812 1054.875 510.261719 1048.714844 511.328125 1041.734375 C 512.574219 1033.53125 506.695312 1025.75 506.96875 1017.449219 C 507.25 1009.113281 513.648438 1002.15625 515.40625 993.996094 C 516.234375 990.292969 516.035156 986.453125 516.410156 982.683594 C 517.414062 972.441406 522.945312 962.378906 532.035156 957.605469 C 538.402344 954.25 548.839844 953.871094 554.792969 958.128906 C 557.691406 960.167969 559.527344 963.277344 559.351562 967.671875 " fill-opacity="1" fill-rule="nonzero"/><path fill="#769134" d="M 559.351562 967.671875 C 559.214844 971.40625 558.796875 975.078125 558.179688 978.675781 C 556.894531 980.371094 555.617188 982.066406 554.375 983.753906 C 549.707031 990.125 545.316406 997.039062 543.96875 1004.824219 C 543.277344 1008.871094 543.414062 1013.023438 543.519531 1017.167969 C 542.480469 1018.9375 541.375 1020.632812 540.128906 1022.253906 C 537.328125 1025.882812 533.875 1028.929688 530.65625 1032.148438 C 529.585938 1028.445312 529.023438 1023.226562 528.777344 1019.371094 C 527.75 1003.410156 530.003906 989.070312 541.132812 977.238281 C 544.113281 974.058594 553.546875 961.375 554.71875 958.335938 C 554.757812 958.265625 554.757812 958.191406 554.792969 958.128906 C 557.691406 960.167969 559.527344 963.277344 559.351562 967.671875 " fill-opacity="1" fill-rule="nonzero"/><path fill="#a9c46e" d="M 622.003906 922.085938 C 622.003906 922.085938 602.984375 934.296875 598.765625 941.523438 C 597.042969 944.464844 596.382812 947.824219 595.378906 951.066406 C 593.132812 958.472656 583.832031 961.582031 580.71875 968.644531 C 579.472656 971.445312 579.375 974.589844 578.960938 977.601562 C 578.058594 984.003906 575.707031 990.15625 572.140625 995.519531 C 569.066406 1000.1875 565.09375 1004.238281 562.707031 1009.28125 C 559.007812 1017 559.527344 1026.0625 560.980469 1034.503906 C 562.433594 1042.9375 564.820312 1051.308594 564.609375 1059.886719 C 564.226562 1077.390625 550.566406 1081.125 554.613281 1098.148438 C 556.695312 1106.789062 554.613281 1123.320312 553.058594 1129.796875 C 542.136719 1116.101562 536.636719 1114.644531 536.8125 1097.101562 C 536.917969 1087.90625 540.304688 1079.011719 540.441406 1069.816406 C 540.613281 1058.023438 535.496094 1046.851562 533.039062 1035.300781 C 528.6875 1014.542969 533.457031 992.027344 545.902344 974.835938 C 548.527344 971.199219 551.539062 967.742188 553.441406 963.664062 C 557.25 955.640625 556.515625 946.191406 559.183594 937.75 C 559.769531 935.8125 560.5625 933.949219 561.527344 932.183594 C 561.527344 932.183594 561.527344 932.183594 561.527344 932.152344 C 565.679688 924.441406 572.839844 918.351562 581.207031 915.757812 C 584.972656 914.574219 591.300781 913.570312 598.109375 913.75 C 606.820312 913.925781 616.261719 915.996094 622.003906 922.085938 " fill-opacity="1" fill-rule="nonzero"/><path fill="#b6d477" d="M 598.109375 913.75 C 598.078125 913.882812 598.078125 913.988281 598.078125 914.125 C 597.765625 920.320312 593.652344 925.644531 589.332031 930.078125 C 585.046875 934.535156 580.203125 938.722656 577.675781 944.394531 C 573.25 954.351562 576.984375 966.46875 572.695312 976.460938 C 570.730469 981.0625 567.238281 984.796875 564.160156 988.773438 C 553.859375 1002.019531 547.878906 1018.625 547.355469 1035.4375 C 543.347656 1027.578125 541.132812 1018.800781 540.925781 1009.972656 C 540.789062 1004.613281 541.40625 999.183594 543.382812 994.203125 C 548.671875 980.675781 563.367188 970.957031 564.058594 956.433594 C 564.371094 949.757812 561.566406 943.285156 561.253906 936.609375 C 561.183594 935.15625 561.285156 933.710938 561.527344 932.183594 C 561.527344 932.183594 561.527344 932.183594 561.527344 932.152344 C 565.679688 924.441406 572.839844 918.351562 581.207031 915.757812 C 584.972656 914.574219 591.300781 913.570312 598.109375 913.75 " fill-opacity="1" fill-rule="nonzero"/><path fill="#edd88b" d="M 953.863281 1394.207031 C 934.535156 1375.332031 910.253906 1359.5 898.835938 1353.058594 C 863.386719 1333.078125 823.585938 1321.890625 783.152344 1318.371094 C 711.652344 1312.164062 639.273438 1319.3125 569.75 1336.71875 C 523.71875 1348.238281 497.214844 1368.90625 450.257812 1377.300781 C 421.433594 1382.457031 386.785156 1370.34375 376.109375 1367.675781 C 355.738281 1362.601562 335.046875 1358.816406 314.210938 1356.308594 C 272.746094 1351.320312 230.730469 1351.425781 189.25 1356.164062 C 147.5625 1360.921875 106.429688 1370.351562 66.707031 1383.839844 C 36.78125 1393.992188 7.796875 1407.757812 -17.488281 1426.886719 C -26.609375 1433.785156 -39.761719 1442.773438 -44.21875 1453.601562 C -55.417969 1480.832031 -13.84375 1480.246094 2.152344 1479.433594 C 43.351562 1477.347656 79.609375 1463.585938 119.894531 1480.421875 C 138.328125 1488.125 156.371094 1497.757812 176.972656 1496.109375 C 198.394531 1494.398438 217.160156 1482.722656 237.867188 1478.125 C 259.289062 1473.371094 281.859375 1477.210938 302.625 1483.226562 C 326.671875 1490.199219 349.851562 1500.546875 374.597656 1504.980469 C 401.738281 1509.847656 423.601562 1502.070312 446.863281 1488.3125 C 478.738281 1469.46875 511.898438 1456.945312 549.539062 1464.019531 C 569.894531 1467.835938 587.582031 1482.191406 608.628906 1482.617188 C 627.90625 1483.011719 645.546875 1471.78125 664.65625 1469.160156 C 688.429688 1465.910156 711.851562 1476.167969 735.753906 1478.261719 C 758.339844 1480.238281 780.871094 1474.898438 803.523438 1473.773438 C 831.558594 1472.375 859.359375 1477.265625 887.324219 1478.167969 C 912.550781 1478.976562 949.4375 1483.476562 970.152344 1465.386719 C 993.6875 1444.839844 977.460938 1417.253906 953.863281 1394.207031 " fill-opacity="1" fill-rule="nonzero"/><path fill="#c99538" d="M 105.9375 1381.828125 C 102.292969 1386.214844 105.816406 1391.40625 110.304688 1393.460938 C 116.265625 1396.183594 136.875 1396.046875 135.550781 1385.210938 C 134.875 1379.691406 126.597656 1376.824219 121.941406 1376.230469 C 117.71875 1375.691406 109.4375 1377.621094 105.9375 1381.828125 " fill-opacity="1" fill-rule="nonzero"/><path fill="#c99538" d="M 82.796875 1414.425781 C 77.386719 1417.609375 74.160156 1422.347656 76.96875 1427.3125 C 83.960938 1439.648438 115.75 1428.136719 109.71875 1416.460938 C 105.496094 1408.28125 91.390625 1409.390625 82.796875 1414.425781 " fill-opacity="1" fill-rule="nonzero"/><path fill="#c99538" d="M 37.5625 1410.925781 C 37.433594 1411.078125 37.3125 1411.238281 37.191406 1411.390625 C 36.09375 1412.828125 35.152344 1414.441406 34.886719 1416.226562 C 34.421875 1419.367188 36.390625 1421.6875 39.175781 1422.75 C 46.207031 1425.441406 69.726562 1417.664062 63.464844 1407.171875 C 57.539062 1397.253906 43.183594 1404.074219 37.5625 1410.925781 " fill-opacity="1" fill-rule="nonzero"/><path fill="#a8693a" d="M 700.257812 1340.605469 C 709.652344 1328.992188 721.277344 1319.085938 732.726562 1309.558594 C 745.605469 1298.84375 755.804688 1287.210938 772.199219 1281.476562 C 775.636719 1280.273438 779.195312 1279.300781 782.390625 1277.550781 C 792.089844 1272.230469 798.585938 1261.460938 807.359375 1254.738281 C 818.542969 1246.171875 830.355469 1238.382812 842.191406 1230.628906 C 865.019531 1215.679688 937.328125 1177.421875 946.308594 1172.851562 C 936.597656 1194.410156 921.695312 1209.511719 911.996094 1231.0625 C 911.996094 1231.0625 903.011719 1230.511719 898.019531 1231.0625 C 898.019531 1231.0625 894.734375 1240.164062 894.429688 1242.71875 C 894.003906 1246.199219 794.320312 1305.472656 764.917969 1349.515625 L 700.257812 1340.605469 " fill-opacity="1" fill-rule="nonzero"/><path fill="#c4c4c4" d="M 912.953125 1442.710938 C 912.640625 1443.785156 911.917969 1444.6875 911.089844 1445.410156 C 908.90625 1447.417969 906.113281 1448.628906 903.34375 1449.632812 C 896.878906 1452.019531 890.0625 1453.640625 883.1875 1453.714844 C 876.308594 1453.777344 869.320312 1452.230469 863.476562 1448.597656 C 861.75 1447.519531 860.089844 1446.109375 858.8125 1444.445312 C 857.871094 1443.230469 857.117188 1441.914062 856.699219 1440.53125 C 856.144531 1440.53125 855.59375 1440.46875 855.039062 1440.363281 C 851.480469 1439.84375 848.15625 1437.867188 845.917969 1435.070312 C 844.871094 1433.824219 844.078125 1432.402344 843.5625 1430.886719 C 843.316406 1430.886719 843.042969 1430.886719 842.800781 1430.855469 C 838.273438 1430.605469 834.058594 1427.664062 831.976562 1423.6875 C 831.496094 1422.722656 831.117188 1421.679688 830.871094 1420.613281 C 830.148438 1420.644531 829.457031 1420.644531 828.726562 1420.578125 C 823.296875 1420.058594 818.214844 1416.324219 816.039062 1411.300781 C 815.800781 1410.753906 815.589844 1410.203125 815.421875 1409.613281 C 815.277344 1409.019531 815.109375 1408.402344 814.660156 1407.984375 C 814.34375 1407.710938 813.929688 1407.605469 813.519531 1407.46875 C 813.476562 1407.46875 813.445312 1407.429688 813.414062 1407.429688 C 810.128906 1406.257812 807.496094 1403.382812 806.667969 1399.992188 C 806.429688 1398.996094 812.339844 1394.632812 817.21875 1393.324219 C 819.597656 1392.667969 820.984375 1392.867188 822.199219 1392.90625 L 822.230469 1392.90625 C 823.507812 1392.9375 824.648438 1392.800781 826.582031 1391.414062 C 828.140625 1390.3125 830.523438 1389.621094 833.15625 1389.277344 C 838.480469 1388.617188 844.769531 1389.414062 847.160156 1391.003906 C 847.78125 1391.453125 848.125 1391.933594 848.125 1392.457031 C 849.921875 1390.691406 854.105469 1389.6875 856.59375 1389.550781 C 856.59375 1389.550781 856.59375 1389.550781 856.628906 1389.550781 C 861.332031 1389.277344 867.210938 1390.34375 870.945312 1393.597656 C 871.320312 1393.910156 871.667969 1394.257812 872.019531 1394.632812 C 874.613281 1393.460938 877.585938 1393.285156 880.3125 1394.183594 L 880.347656 1394.183594 C 881.042969 1394.359375 881.734375 1394.667969 882.394531 1395.011719 C 884.632812 1396.222656 886.816406 1398.234375 888.0625 1400.546875 C 888.542969 1401.484375 888.890625 1402.449219 889.066406 1403.453125 C 889.714844 1403.382812 890.375 1403.351562 891.03125 1403.316406 C 893.144531 1403.214844 895.25 1403.316406 897.253906 1403.9375 C 899.847656 1404.769531 902.273438 1406.707031 903.027344 1409.332031 C 903.550781 1411.027344 903.34375 1412.796875 902.859375 1414.492188 C 902.621094 1415.246094 902.339844 1415.976562 902.023438 1416.699219 C 900.988281 1419.15625 899.609375 1421.753906 900.265625 1424.347656 C 900.613281 1425.761719 901.542969 1426.972656 902.476562 1428.082031 C 904.617188 1430.644531 906.90625 1433.0625 909.292969 1435.375 C 909.355469 1435.449219 909.429688 1435.519531 909.492188 1435.585938 C 911.5 1437.5625 913.675781 1440.050781 912.953125 1442.710938 " fill-opacity="1" fill-rule="nonzero"/><path fill="#dbc87d" d="M 669.144531 1420.410156 C 666.613281 1424.707031 667.746094 1430.5625 671.144531 1434.203125 C 674.539062 1437.851562 679.765625 1439.410156 684.738281 1439.121094 C 689.707031 1438.832031 694.445312 1436.871094 698.738281 1434.339844 C 704.488281 1442.285156 716.148438 1445.257812 724.996094 1441.039062 C 733.84375 1436.820312 738.878906 1425.898438 736.339844 1416.425781 C 733.644531 1406.363281 723.984375 1399.695312 714.210938 1396.105469 C 698.972656 1390.488281 681.8125 1390.28125 666.4375 1395.519531 C 661.011719 1397.367188 652.902344 1401.773438 654.210938 1408.59375 C 655.453125 1415.078125 662.703125 1420.722656 669.144531 1420.410156 " fill-opacity="1" fill-rule="nonzero"/><path fill="#c99538" d="M 745.839844 1418.652344 C 745.253906 1421.039062 744.355469 1423.359375 743.214844 1425.535156 C 739.648438 1432.554688 733.5625 1438.269531 726.0625 1440.507812 C 716.210938 1443.457031 704.351562 1439.410156 699.480469 1430.347656 C 693.390625 1435.875 684.328125 1438.917969 676.765625 1435.738281 C 669.640625 1432.734375 665.941406 1423.527344 669.570312 1416.613281 C 660.410156 1416.128906 649.960938 1414.78125 647.441406 1403.503906 C 645.8125 1396.199219 649.167969 1388.457031 654.628906 1383.339844 C 654.804688 1383.164062 655.011719 1382.996094 655.222656 1382.851562 C 682.707031 1358.261719 757.769531 1371.300781 745.839844 1418.652344 " fill-opacity="1" fill-rule="nonzero"/><path fill="#b8852c" d="M 685.773438 1390.519531 C 693.222656 1385.878906 698.5625 1383.933594 702.191406 1382.535156 C 705.8125 1381.15625 707.394531 1380.136719 707.128906 1379.378906 C 707.011719 1379.035156 704.898438 1378.425781 701.40625 1378.183594 C 697.945312 1377.917969 692.878906 1378.328125 687.683594 1380.214844 C 685.042969 1381.1875 682.625 1382.167969 679.878906 1383.886719 C 677.269531 1385.53125 674.980469 1387.515625 672.988281 1389.679688 C 669.023438 1393.976562 666.222656 1399.125 665.652344 1404.074219 C 665.457031 1406.480469 668.347656 1403.605469 672.53125 1400.191406 C 676.707031 1396.714844 682.335938 1392.601562 685.773438 1390.519531 " fill-opacity="1" fill-rule="nonzero"/><path fill="#b8852c" d="M 703.476562 1405.179688 C 713.335938 1394.433594 715.394531 1389.050781 714.117188 1388.207031 C 712.839844 1387.363281 689.867188 1400.207031 686.34375 1415.632812 C 685.46875 1419.445312 698.476562 1410.628906 703.476562 1405.179688 " fill-opacity="1" fill-rule="nonzero"/><path fill="#b8852c" d="M 728.882812 1413.132812 C 731.714844 1405.351562 731.136719 1399.390625 730.230469 1396.039062 C 729.273438 1392.617188 727.972656 1391.507812 727.308594 1391.773438 C 726.5625 1392.085938 725.589844 1398.851562 722.660156 1405.664062 C 721.246094 1409.117188 719.457031 1412.660156 717.746094 1416.179688 C 715.996094 1419.6875 714.324219 1423.199219 713.183594 1426.957031 C 712.574219 1428.796875 715.808594 1427.976562 719.671875 1425.101562 C 723.566406 1422.316406 727.484375 1417.078125 728.882812 1413.132812 " fill-opacity="1" fill-rule="nonzero"/><path fill="#b8852c" d="M 743.214844 1425.535156 C 739.648438 1432.554688 733.5625 1438.269531 726.0625 1440.507812 C 716.210938 1443.457031 704.351562 1439.410156 699.480469 1430.347656 C 693.390625 1435.875 684.328125 1438.917969 676.765625 1435.738281 C 669.640625 1432.734375 665.941406 1423.527344 669.570312 1416.613281 C 660.410156 1416.128906 649.960938 1414.78125 647.441406 1403.503906 C 645.8125 1396.199219 649.167969 1388.457031 654.628906 1383.339844 C 654.804688 1383.164062 655.011719 1382.996094 655.222656 1382.851562 C 654.042969 1385.582031 652.902344 1388.25 652.386719 1391.261719 C 651.488281 1396.480469 652.347656 1402.289062 655.839844 1406.273438 C 661.097656 1412.144531 670.1875 1412.25 677.9375 1410.804688 C 673.890625 1415.742188 677.109375 1424.050781 683.019531 1426.507812 C 688.894531 1428.957031 695.914062 1426.605469 700.714844 1422.386719 C 705.355469 1431.207031 716.589844 1435.046875 726.375 1433.320312 C 732.558594 1432.242188 738.195312 1429.34375 743.214844 1425.535156 " fill-opacity="1" fill-rule="nonzero"/><path fill="#dbc87d" d="M 393.304688 1460.894531 L 289.488281 1453.714844 L 328.003906 1441.457031 L 308.453125 1430.003906 L 344.101562 1427.9375 L 393.304688 1460.894531 " fill-opacity="1" fill-rule="nonzero"/><path fill="#a8693a" d="M 308.804688 1404.257812 C 311.847656 1404.652344 412.175781 1417.726562 412.175781 1417.726562 L 397.175781 1432.011719 L 430.585938 1442.558594 L 406.859375 1452.605469 L 421.539062 1464.574219 L 295.363281 1448.125 L 325.167969 1438.871094 L 303.601562 1426.386719 L 324.96875 1422.605469 L 308.804688 1404.257812 " fill-opacity="1" fill-rule="nonzero"/><path fill="#dbc87d" d="M 243.09375 1416.007812 L 168.757812 1460.894531 L 168.757812 1440.644531 L 143.660156 1446.203125 L 165.28125 1425.117188 L 241.480469 1397.21875 L 243.09375 1416.007812 " fill-opacity="1" fill-rule="nonzero"/><path fill="#804c26" d="M 143.660156 1419.527344 L 263.230469 1366.457031 L 257.105469 1384.859375 L 281.628906 1381.019531 L 273.195312 1392.988281 L 291.214844 1388.304688 L 172.019531 1456.9375 L 172.78125 1436.234375 L 143.660156 1446.203125 L 154.386719 1423.960938 L 143.660156 1419.527344 " fill-opacity="1" fill-rule="nonzero"/><path fill="#d4d4d4" d="M 213.980469 929.074219 C 203.886719 934.542969 193.242188 939.523438 185.195312 947.710938 C 175.183594 957.894531 170.125 972.75 171.835938 986.933594 C 172.066406 988.839844 172.445312 990.8125 173.632812 992.316406 C 174.855469 993.882812 176.757812 994.726562 178.59375 995.488281 C 185.429688 998.339844 192.46875 1000.984375 198.378906 1005.457031 C 204.289062 1009.921875 209.019531 1016.621094 209.148438 1024.027344 C 209.257812 1030.945312 205.75 1038.992188 210.421875 1044.085938 C 213.707031 1047.660156 219.265625 1047.515625 224.113281 1047.476562 C 239.121094 1047.371094 256.320312 1052.792969 261.691406 1066.8125 C 264.863281 1075.078125 263.085938 1084.417969 260.035156 1092.726562 C 256.984375 1101.023438 252.679688 1108.910156 250.675781 1117.523438 C 249.839844 1121.113281 249.984375 1125.875 253.402344 1127.265625 C 255.003906 1127.917969 256.832031 1127.53125 258.4375 1126.886719 C 269.574219 1122.4375 272.449219 1108.484375 277.402344 1097.550781 C 282.800781 1085.632812 292.386719 1075.664062 304.078125 1069.800781 C 318.511719 1062.5625 335.277344 1061.679688 350.496094 1056.273438 C 352.019531 1055.734375 353.625 1055.066406 354.5 1053.710938 C 355.335938 1052.417969 355.3125 1050.753906 355.101562 1049.21875 C 353.359375 1036.464844 341.011719 1028.085938 329.25 1022.847656 C 307.570312 1013.199219 284.101562 1008.484375 260.9375 1003.335938 C 254.898438 1001.988281 248.746094 1000.566406 243.457031 997.351562 C 238.171875 994.148438 233.796875 988.796875 233.371094 982.621094 C 232.96875 976.84375 235.996094 971.398438 239.488281 966.78125 C 245.167969 959.285156 252.367188 952.941406 260.519531 948.242188 C 265.761719 945.226562 271.527344 942.769531 275.558594 938.265625 C 281.789062 931.285156 282.460938 921.105469 286.027344 912.453125 C 288.996094 905.25 298.632812 891.378906 290.316406 884.179688 C 284.292969 878.972656 275.011719 885.3125 269.992188 889.039062 C 251.292969 902.929688 234.671875 917.851562 213.980469 929.074219 " fill-opacity="1" fill-rule="nonzero"/><path fill="#d4d4d4" d="M 177.792969 732.144531 C 154.523438 748.667969 124.75 754.445312 102.253906 772.011719 C 97.589844 775.65625 92.898438 780.816406 93.8125 786.671875 C 100.800781 792.035156 114.257812 785.515625 118.109375 793.433594 C 120.253906 797.859375 117.082031 803.925781 120.175781 807.75 C 121.988281 809.980469 125.28125 810.398438 128.105469 809.851562 C 139.332031 807.675781 144.390625 795 150.78125 785.507812 C 157.199219 775.957031 166.632812 768.460938 177.382812 764.363281 C 182.851562 762.285156 188.640625 761.054688 193.90625 758.507812 C 211.570312 749.96875 219.152344 729.308594 225.09375 710.601562 C 230.070312 694.953125 215.28125 697.949219 208.085938 705.492188 C 198.8125 715.210938 188.921875 724.242188 177.792969 732.144531 " fill-opacity="1" fill-rule="nonzero"/><path fill="#e0cb7b" d="M 269.824219 1421.710938 C 267.9375 1420.296875 265.359375 1420.050781 263.265625 1421.070312 C 261.34375 1422.007812 260.148438 1423.875 260.027344 1426.089844 C 259.722656 1428.316406 260.566406 1430.394531 262.308594 1431.703125 C 263.425781 1432.539062 264.78125 1432.972656 266.128906 1432.972656 C 267.070312 1432.972656 268.007812 1432.765625 268.859375 1432.347656 C 270.78125 1431.40625 271.976562 1429.542969 272.105469 1427.328125 C 272.402344 1425.101562 271.566406 1423.023438 269.824219 1421.710938 " fill-opacity="1" fill-rule="nonzero"/><path fill="#e0cb7b" d="M 441.144531 1408.191406 C 437.742188 1408.191406 435.179688 1410.796875 435.179688 1414.25 C 435.179688 1417.695312 437.742188 1420.296875 441.144531 1420.296875 C 444.542969 1420.296875 447.101562 1417.695312 447.101562 1414.25 C 447.101562 1412.738281 446.582031 1411.308594 445.640625 1410.210938 C 444.523438 1408.910156 442.925781 1408.191406 441.144531 1408.191406 " fill-opacity="1" fill-rule="nonzero"/><path fill="#e0cb7b" d="M 489.273438 1430.855469 C 485.867188 1430.855469 483.304688 1433.457031 483.304688 1436.902344 C 483.304688 1438.414062 483.828125 1439.84375 484.769531 1440.941406 C 485.882812 1442.234375 487.480469 1442.957031 489.273438 1442.957031 C 492.667969 1442.957031 495.230469 1440.355469 495.230469 1436.902344 C 495.230469 1435.398438 494.707031 1433.960938 493.769531 1432.863281 C 492.652344 1431.570312 491.054688 1430.855469 489.273438 1430.855469 " fill-opacity="1" fill-rule="nonzero"/><path fill="#e0cb7b" d="M 584.082031 1361.707031 C 587.476562 1361.707031 590.039062 1359.105469 590.039062 1355.652344 C 590.039062 1354.140625 589.519531 1352.710938 588.578125 1351.609375 C 587.460938 1350.316406 585.863281 1349.59375 584.082031 1349.59375 C 580.675781 1349.59375 578.117188 1352.207031 578.117188 1355.652344 C 578.117188 1357.160156 578.636719 1358.589844 579.578125 1359.691406 C 580.695312 1360.984375 582.292969 1361.707031 584.082031 1361.707031 " fill-opacity="1" fill-rule="nonzero"/><path fill="#e0cb7b" d="M 478.441406 1391.589844 C 481.835938 1391.589844 484.40625 1388.988281 484.40625 1385.542969 C 484.40625 1382.085938 481.835938 1379.484375 478.441406 1379.484375 C 476.648438 1379.484375 475.050781 1380.199219 473.9375 1381.507812 C 472.996094 1382.601562 472.484375 1384.039062 472.484375 1385.542969 C 472.484375 1388.988281 475.042969 1391.589844 478.441406 1391.589844 " fill-opacity="1" fill-rule="nonzero"/><path fill="#e0cb7b" d="M 784.972656 1433.640625 C 781.578125 1433.640625 779.015625 1436.242188 779.015625 1439.699219 C 779.015625 1443.144531 781.578125 1445.746094 784.972656 1445.746094 C 788.378906 1445.746094 790.941406 1443.144531 790.941406 1439.691406 C 790.941406 1438.179688 790.417969 1436.75 789.480469 1435.65625 C 788.363281 1434.355469 786.765625 1433.640625 784.972656 1433.640625 " fill-opacity="1" fill-rule="nonzero"/><path fill="#e0cb7b" d="M 578.117188 1436.902344 C 574.710938 1436.902344 572.152344 1439.503906 572.152344 1442.957031 C 572.152344 1444.460938 572.671875 1445.898438 573.613281 1446.992188 C 574.726562 1448.292969 576.332031 1449.007812 578.117188 1449.007812 C 581.519531 1449.007812 584.082031 1446.40625 584.082031 1442.957031 C 584.082031 1439.503906 581.519531 1436.902344 578.117188 1436.902344 " fill-opacity="1" fill-rule="nonzero"/><path fill="#e0cb7b" d="M 606.78125 1410.007812 C 604.554688 1409.710938 602.476562 1410.554688 601.175781 1412.289062 C 599.753906 1414.175781 599.507812 1416.757812 600.535156 1418.851562 C 601.464844 1420.773438 603.328125 1421.96875 605.550781 1422.097656 C 605.839844 1422.136719 606.136719 1422.152344 606.417969 1422.152344 C 608.304688 1422.152344 610.023438 1421.320312 611.15625 1419.808594 C 612.570312 1417.921875 612.828125 1415.351562 611.800781 1413.246094 C 610.859375 1411.335938 608.996094 1410.136719 606.78125 1410.007812 " fill-opacity="1" fill-rule="nonzero"/><path fill="#e0cb7b" d="M 664.679688 1357.980469 C 668.085938 1357.980469 670.644531 1355.378906 670.644531 1351.925781 C 670.644531 1350.421875 670.125 1348.984375 669.183594 1347.890625 C 668.066406 1346.589844 666.46875 1345.875 664.679688 1345.875 C 661.285156 1345.875 658.722656 1348.476562 658.722656 1351.933594 C 658.722656 1353.433594 659.234375 1354.871094 660.183594 1355.964844 C 661.292969 1357.265625 662.898438 1357.980469 664.679688 1357.980469 " fill-opacity="1" fill-rule="nonzero"/><path fill="#e0cb7b" d="M 776.191406 1369.828125 C 773.339844 1369.742188 770.820312 1371.242188 769.671875 1373.789062 C 768.585938 1376.191406 768.980469 1378.988281 770.640625 1380.746094 C 771.710938 1381.878906 773.148438 1382.457031 774.746094 1382.457031 C 775.546875 1382.457031 776.382812 1382.3125 777.234375 1382.015625 C 780.253906 1381.226562 782.292969 1378.367188 782.027344 1375.242188 C 781.761719 1372.175781 779.371094 1369.949219 776.191406 1369.828125 " fill-opacity="1" fill-rule="nonzero"/><path fill="#e0cb7b" d="M 813.945312 1334.894531 C 811.085938 1334.804688 808.566406 1336.308594 807.425781 1338.855469 C 806.339844 1341.257812 806.726562 1344.050781 808.386719 1345.8125 C 809.457031 1346.9375 810.902344 1347.523438 812.492188 1347.523438 C 813.292969 1347.523438 814.136719 1347.378906 814.988281 1347.074219 C 818 1346.292969 820.039062 1343.433594 819.773438 1340.308594 C 819.507812 1337.242188 817.117188 1335.015625 813.945312 1334.894531 " fill-opacity="1" fill-rule="nonzero"/><path fill="#e0cb7b" d="M 230.425781 1436.902344 C 227.027344 1436.902344 224.464844 1439.503906 224.464844 1442.957031 C 224.464844 1446.40625 227.027344 1449.007812 230.425781 1449.007812 C 233.828125 1449.007812 236.390625 1446.40625 236.390625 1442.957031 C 236.390625 1441.449219 235.867188 1440.019531 234.929688 1438.917969 C 233.8125 1437.617188 232.214844 1436.902344 230.425781 1436.902344 " fill-opacity="1" fill-rule="nonzero"/><path fill="#e0cb7b" d="M 159.757812 1371.25 C 156.355469 1371.25 153.792969 1373.855469 153.792969 1377.308594 C 153.792969 1378.808594 154.316406 1380.238281 155.253906 1381.339844 C 156.371094 1382.640625 157.96875 1383.355469 159.757812 1383.355469 C 163.15625 1383.355469 165.714844 1380.753906 165.714844 1377.300781 C 165.714844 1373.855469 163.15625 1371.25 159.757812 1371.25 " fill-opacity="1" fill-rule="nonzero"/><path fill="#e0cb7b" d="M 553.789062 1418.964844 C 554.117188 1419.03125 554.4375 1419.0625 554.765625 1419.0625 C 556.148438 1419.0625 557.472656 1418.484375 558.40625 1417.421875 C 559.632812 1416.015625 559.96875 1414.03125 559.28125 1412.363281 C 558.628906 1410.789062 557.222656 1409.75 555.472656 1409.535156 C 553.746094 1409.199219 552.003906 1409.769531 550.855469 1411.078125 C 549.628906 1412.476562 549.292969 1414.46875 549.980469 1416.136719 C 550.632812 1417.703125 552.035156 1418.75 553.789062 1418.964844 " fill-opacity="1" fill-rule="nonzero"/><path fill="#e0cb7b" d="M 317.253906 1375.980469 C 317.582031 1376.046875 317.902344 1376.078125 318.234375 1376.078125 C 319.621094 1376.078125 320.9375 1375.492188 321.871094 1374.433594 C 323.097656 1373.035156 323.4375 1371.050781 322.746094 1369.371094 C 322.09375 1367.804688 320.691406 1366.769531 318.9375 1366.542969 C 317.210938 1366.207031 315.46875 1366.785156 314.324219 1368.09375 C 313.101562 1369.492188 312.757812 1371.476562 313.445312 1373.15625 C 314.097656 1374.722656 315.503906 1375.765625 317.253906 1375.980469 " fill-opacity="1" fill-rule="nonzero"/><path fill="#e0cb7b" d="M 194.507812 1380.078125 C 194.839844 1380.144531 195.160156 1380.175781 195.480469 1380.175781 C 196.871094 1380.175781 198.195312 1379.597656 199.125 1378.527344 C 200.347656 1377.132812 200.691406 1375.148438 199.992188 1373.46875 C 199.351562 1371.902344 197.9375 1370.867188 196.195312 1370.640625 C 194.46875 1370.304688 192.71875 1370.882812 191.578125 1372.191406 C 190.351562 1373.589844 190.003906 1375.574219 190.703125 1377.25 C 191.355469 1378.816406 192.757812 1379.855469 194.507812 1380.078125 " fill-opacity="1" fill-rule="nonzero"/><path fill="#e0cb7b" d="M 627.839844 1372.585938 C 626.113281 1372.246094 624.382812 1372.816406 623.226562 1374.132812 C 622.003906 1375.53125 621.667969 1377.515625 622.359375 1379.195312 C 623.007812 1380.761719 624.414062 1381.796875 626.164062 1382.023438 C 626.492188 1382.078125 626.8125 1382.109375 627.136719 1382.109375 C 628.523438 1382.109375 629.847656 1381.53125 630.78125 1380.472656 C 632 1379.074219 632.339844 1377.089844 631.648438 1375.410156 C 630.996094 1373.84375 629.59375 1372.808594 627.839844 1372.585938 " fill-opacity="1" fill-rule="nonzero"/><path fill="#e0cb7b" d="M 730.976562 1357.980469 C 728.335938 1357.980469 726.265625 1360.070312 726.265625 1362.734375 C 726.265625 1363.902344 726.675781 1365.015625 727.414062 1365.886719 C 728.289062 1366.90625 729.589844 1367.492188 730.976562 1367.492188 C 733.621094 1367.492188 735.683594 1365.402344 735.683594 1362.734375 C 735.683594 1360.070312 733.621094 1357.980469 730.976562 1357.980469 " fill-opacity="1" fill-rule="nonzero"/><path fill="#e0cb7b" d="M 364.953125 1401.246094 C 367.597656 1401.246094 369.667969 1399.15625 369.667969 1396.488281 C 369.667969 1395.324219 369.257812 1394.207031 368.519531 1393.347656 C 367.636719 1392.320312 366.335938 1391.734375 364.953125 1391.734375 C 362.3125 1391.734375 360.242188 1393.824219 360.242188 1396.496094 C 360.242188 1397.664062 360.652344 1398.777344 361.390625 1399.636719 C 362.273438 1400.660156 363.574219 1401.246094 364.953125 1401.246094 " fill-opacity="1" fill-rule="nonzero"/><path fill="#e0cb7b" d="M 504.472656 1414.152344 C 504.800781 1414.21875 505.121094 1414.25 505.441406 1414.25 C 506.832031 1414.25 508.15625 1413.671875 509.089844 1412.609375 C 510.308594 1411.207031 510.652344 1409.222656 509.957031 1407.542969 C 509.304688 1405.976562 507.898438 1404.941406 506.148438 1404.722656 C 504.421875 1404.378906 502.679688 1404.957031 501.539062 1406.265625 C 500.3125 1407.664062 499.96875 1409.648438 500.664062 1411.324219 C 501.316406 1412.890625 502.722656 1413.9375 504.472656 1414.152344 " fill-opacity="1" fill-rule="nonzero"/><path fill="#e0cb7b" d="M 531.609375 1377.703125 L 531.746094 1376.9375 C 531.84375 1375.644531 531.804688 1373.742188 530.445312 1372.261719 C 529.578125 1371.324219 528.375 1370.800781 527.035156 1370.785156 L 526.785156 1370.785156 L 526.527344 1370.816406 C 523.910156 1371.1875 522.152344 1373.171875 522.136719 1375.765625 C 522.121094 1378.175781 523.789062 1381.035156 526.503906 1381.453125 C 526.703125 1381.476562 526.90625 1381.5 527.121094 1381.5 C 528.777344 1381.5 530.742188 1380.527344 531.609375 1377.703125 " fill-opacity="1" fill-rule="nonzero"/><path fill="#e0cb7b" d="M 6.289062 1426.996094 L 6.433594 1426.242188 C 6.519531 1424.941406 6.488281 1423.039062 5.121094 1421.558594 C 4.265625 1420.621094 3.058594 1420.097656 1.71875 1420.082031 L 1.460938 1420.082031 L 1.203125 1420.113281 C -1.40625 1420.484375 -3.164062 1422.476562 -3.179688 1425.0625 C -3.195312 1427.472656 -1.523438 1430.339844 1.1875 1430.75 C 1.382812 1430.78125 1.589844 1430.796875 1.808594 1430.796875 C 3.460938 1430.796875 5.429688 1429.824219 6.289062 1426.996094 " fill-opacity="1" fill-rule="nonzero"/></svg>